<?xml version="1.0" standalone="no"?><!DOCTYPE svg PUBLIC "-//W3C//DTD SVG 1.1//EN" "http://www.w3.org/Graphics/SVG/1.1/DTD/svg11.dtd"><svg t="1746273230262" class="icon" viewBox="0 0 1024 1024" version="1.1" xmlns="http://www.w3.org/2000/svg" p-id="22300" xmlns:xlink="http://www.w3.org/1999/xlink" width="200" height="200"><path d="M938.666667 384h-86.613334c-54.186667-153.173333-198.826667-256-361.386666-256a384 384 0 0 0-384 384c0 213.333333 171.946667 384 384 384 162.56 0 307.2-102.4 362.666666-256h85.333334m-85.333334-170.666667v85.333334h-85.333333v-85.333334m-7.68 170.666667c-49.493333 104.106667-154.453333 170.666667-269.653333 170.666667-164.693333 0-298.666667-133.546667-298.666667-298.666667 0-164.693333 133.973333-298.666667 298.666667-298.666667 115.2 0 220.16 66.986667 269.226666 170.666667H682.666667v256" fill="" p-id="22301"></path></svg>