<?xml version="1.0" standalone="no"?><!DOCTYPE svg PUBLIC "-//W3C//DTD SVG 1.1//EN" "http://www.w3.org/Graphics/SVG/1.1/DTD/svg11.dtd"><svg t="1746363937332" class="icon" viewBox="0 0 1024 1024" version="1.1" xmlns="http://www.w3.org/2000/svg" p-id="9003" xmlns:xlink="http://www.w3.org/1999/xlink" width="200" height="200"><path d="M511.573333 85.333333C276.053333 85.333333 85.333333 276.48 85.333333 512s190.72 426.666667 426.24 426.666667C747.52 938.666667 938.666667 747.52 938.666667 512S747.52 85.333333 511.573333 85.333333zM512 853.333333c-188.586667 0-341.333333-152.746667-341.333333-341.333333s152.746667-341.333333 341.333333-341.333333 341.333333 152.746667 341.333333 341.333333-152.746667 341.333333-341.333333 341.333333z m149.333333-384c35.413333 0 64-28.586667 64-64S696.746667 341.333333 661.333333 341.333333 597.333333 369.92 597.333333 405.333333s28.586667 64 64 64z m-298.666666 0c35.413333 0 64-28.586667 64-64S398.08 341.333333 362.666667 341.333333 298.666667 369.92 298.666667 405.333333 327.253333 469.333333 362.666667 469.333333z m149.333333 277.333334c99.413333 0 183.893333-62.293333 218.026667-149.333334H293.973333c34.133333 87.04 118.613333 149.333333 218.026667 149.333334z" p-id="9004"></path></svg>